<svg id="Groupe_2492" data-name="Groupe 2492" xmlns="http://www.w3.org/2000/svg" width="36.6" height="40" viewBox="0 0 36.6 40">
  <path id="user" d="M34.343,28.593l-6.369-3.184A1.754,1.754,0,0,1,27,23.832V21.578c.153-.187.313-.4.479-.634a15.257,15.257,0,0,0,1.969-3.866A2.645,2.645,0,0,0,31,14.667V12a2.659,2.659,0,0,0-.667-1.75V6.7a5.976,5.976,0,0,0-1.395-4.35C27.569.792,25.347,0,22.333,0S17.1.792,15.728,2.353A5.978,5.978,0,0,0,14.333,6.7V10.25A2.659,2.659,0,0,0,13.667,12v2.667a2.651,2.651,0,0,0,1,2.073A13.992,13.992,0,0,0,17,21.564V23.77a1.762,1.762,0,0,1-.918,1.547l-5.947,3.244A6.012,6.012,0,0,0,7,33.841V36c0,3.164,10.03,4,15.333,4s15.333-.836,15.333-4V33.971A5.982,5.982,0,0,0,34.343,28.593Z" transform="translate(-7)" fill="#fff"/>
  <g id="lock" transform="translate(24 22.533)">
    <g id="Groupe_2491" data-name="Groupe 2491">
      <path id="Tracé_1581" data-name="Tracé 1581" d="M76.25,6.3H75.2V4.9a4.9,4.9,0,1,0-9.8,0V6.3H64.35a.35.35,0,0,0-.35.35V15.4a1.4,1.4,0,0,0,1.4,1.4h9.8a1.4,1.4,0,0,0,1.4-1.4V6.65A.35.35,0,0,0,76.25,6.3Zm-4.9,7.311A.35.35,0,0,1,71,14H69.6a.35.35,0,0,1-.348-.389l.221-1.985A1.385,1.385,0,0,1,68.9,10.5a1.4,1.4,0,0,1,2.8,0,1.385,1.385,0,0,1-.573,1.126ZM73.1,6.3H67.5V4.9a2.8,2.8,0,0,1,5.6,0Z" transform="translate(-64)" fill="#0b9444"/>
    </g>
  </g>
</svg>
