<svg id="Capa_1" enable-background="new 0 0 512 512" height="512" viewBox="0 0 512 512" width="512" xmlns="http://www.w3.org/2000/svg"><path d="m362.499 331h-227.635c2.649-4.127 4.394-8.886 4.944-14h12.692c9.649 0 17.5-7.851 17.5-17.5v-17c0-9.649-7.851-17.5-17.5-17.5h-12.691c-1.752-16.28-15.571-29-32.309-29h-12.5v-108c0-26.467 21.533-48 48-48s48 21.533 48 48v10.2c-8.466 1.22-15 8.502-15 17.3v10c0 9.649 7.851 17.5 17.5 17.5h55c9.649 0 17.5-7.851 17.5-17.5v-10c0-8.798-6.534-16.081-15-17.3v-10.2c0-59.551-48.449-108-108-108s-108 48.449-108 108v5.333c0 4.142 3.358 7.5 7.5 7.5s7.5-3.358 7.5-7.5v-5.333c0-51.28 41.72-93 93-93s93 41.72 93 93v10h-30v-10c0-34.738-28.262-63-63-63s-63 28.262-63 63v203h-30v-162.667c0-4.142-3.358-7.5-7.5-7.5s-7.5 3.358-7.5 7.5v162.667h-17.5c-9.649 0-17.5 7.85-17.5 17.5v16c0 9.649 7.851 17.5 17.5 17.5h1.218c30.402 66.944 97.042 110 170.781 110h1c73.776 0 140.375-43.044 170.778-110h1.221c9.649 0 17.5-7.851 17.5-17.5v-16c.001-9.65-7.849-17.5-17.499-17.5zm-111.5-165.5c0 1.378-1.122 2.5-2.5 2.5h-55c-1.378 0-2.5-1.122-2.5-2.5v-10c0-1.378 1.122-2.5 2.5-2.5h55c1.378 0 2.5 1.122 2.5 2.5zm-95.999 117v17c0 1.378-1.122 2.5-2.5 2.5h-12.5v-22h12.5c1.378 0 2.5 1.122 2.5 2.5zm-47.5-31.5c9.649 0 17.5 7.851 17.5 17.5v45c0 9.649-7.851 17.5-17.5 17.5h-12.5v-80zm257.499 113.5c0 1.378-1.122 2.5-2.5 2.5h-28.833c-4.142 0-7.5 3.358-7.5 7.5s3.358 7.5 7.5 7.5h10.987c-29.18 58.043-88.584 95-154.153 95h-1c-65.535 0-124.973-36.966-154.154-95h263.32c4.142 0 7.5-3.358 7.5-7.5s-3.358-7.5-7.5-7.5h-281.166c-1.378 0-2.5-1.122-2.5-2.5v-16c0-1.378 1.122-2.5 2.5-2.5h344.999c1.378 0 2.5 1.122 2.5 2.5z"/><path d="m507.913 320.697-16.012-19.081c-2.998-3.573-7.208-5.765-11.856-6.172-4.642-.405-9.174 1.021-12.747 4.02l-1.307 1.097-74.071-85.238c-8.044-9.381-21.994-11.482-32.445-4.887-5.74 3.622-9.694 9.268-11.134 15.9s-.184 13.411 3.537 19.087l8.903 13.577h-117.782c-13.785 0-25 11.215-25 25s11.215 25 25 25h120.883c8.874 0 17.1 4.007 22.569 10.995l22.35 28.553-2.564 2.151c-3.573 2.998-5.765 7.208-6.172 11.855s1.021 9.174 4.019 12.748l16.012 19.082c2.998 3.573 7.208 5.765 11.856 6.172.519.045 1.037.068 1.552.068 4.095 0 8.021-1.424 11.195-4.087l61.06-51.236c3.573-2.998 5.765-7.208 6.172-11.855.408-4.648-1.02-9.176-4.018-12.749zm-143.489-83.499c-1.498-2.284-2.003-5.012-1.423-7.68s2.17-4.94 4.48-6.398c4.204-2.652 9.816-1.809 13.054 1.966l33.278 38.803c-10.089-3.202-20.704-4.889-31.506-4.889h-3.59zm-131.425 46.802c0-5.514 4.486-10 10-10h21.844c-1.343 3.064-2.094 6.446-2.094 10s.751 6.936 2.094 10h-21.844c-5.514 0-10-4.486-10-10zm165.264 26.749c-8.332-10.644-20.863-16.749-34.38-16.749h-67.883-8.25c-5.514 0-10-4.486-10-10s4.486-10 10-10h8.25 78.566.008 7.733c25.614 0 50.014 11.024 66.943 30.246l5.248 5.959-34.198 28.696zm98.726 21.388c-.033.379-.19 1.102-.871 1.673l-61.06 51.236c-.681.571-1.421.598-1.798.567-.38-.033-1.102-.19-1.673-.871l-16.012-19.082c-.57-.68-.6-1.418-.566-1.798.033-.379.19-1.102.871-1.673l61.06-51.236c.569-.478 1.179-.576 1.585-.576.08 0 .151.004.213.009.38.033 1.102.19 1.673.871l16.012 19.082c.57.68.599 1.418.566 1.798z"/><path d="m183.5 205v29c0 4.142 3.358 7.5 7.5 7.5s7.5-3.358 7.5-7.5v-29c0-4.142-3.358-7.5-7.5-7.5-4.143 0-7.5 3.358-7.5 7.5z"/><path d="m213.5 205v29c0 4.142 3.358 7.5 7.5 7.5s7.5-3.358 7.5-7.5v-29c0-4.142-3.358-7.5-7.5-7.5-4.143 0-7.5 3.358-7.5 7.5z"/><path d="m243.499 205v29c0 4.142 3.358 7.5 7.5 7.5s7.5-3.358 7.5-7.5v-29c0-4.142-3.358-7.5-7.5-7.5s-7.5 3.358-7.5 7.5z"/></svg>