<svg id="Capa_1" data-name="Capa 1" xmlns="http://www.w3.org/2000/svg" viewBox="0 0 402 402"><defs><style>.cls-1{font-size:83px;font-family:LemonMilkbold, "Lemon/Milk";}</style></defs><title>Plan de travail 1</title><path d="M401.13,311.47q-1.71-5.13-21.7-15.12Q374,293.2,364,287.78t-18.13-10q-8.14-4.56-15.27-8.84-1.14-.85-7.14-5a79,79,0,0,0-10.14-6.14,18.65,18.65,0,0,0-8.14-2q-5.7,0-14.27,8.14a140.16,140.16,0,0,0-15.7,17.7,171.08,171.08,0,0,1-15.12,17.7q-8,8.15-13.14,8.14a19.44,19.44,0,0,1-6.42-1.42c-2.57-.95-4.52-1.77-5.86-2.43s-3.61-2-6.85-4-5.05-3.09-5.43-3.28q-39.1-21.71-67.09-49.68t-49.67-67.1q-.29-.57-3.29-5.42c-2-3.24-3.33-5.52-4-6.86s-1.47-3.28-2.42-5.85A19.34,19.34,0,0,1,94.51,155q0-5.15,8.14-13.14a171.08,171.08,0,0,1,17.7-15.12,139.39,139.39,0,0,0,17.7-15.7q8.13-8.57,8.14-14.28a18.65,18.65,0,0,0-2-8.13,79,79,0,0,0-6.14-10.14c-2.76-4-4.43-6.37-5-7.14q-4.28-7.12-8.85-15.27T114.21,38q-5.43-10-8.57-15.42-10-20-15.12-21.69a16.07,16.07,0,0,0-6-.86Q76.81,0,64.39,2.86a112.71,112.71,0,0,0-19.56,6q-14.26,6-30.26,34.83Q0,70.52,0,96.78a109.71,109.71,0,0,0,1,15,125,125,0,0,0,3.57,16.42q2.56,9.13,4.14,13.56t5.85,15.84q4.28,11.43,5.14,14a258.71,258.71,0,0,0,23.69,50q22.54,36.56,61.52,75.52t75.52,61.53a259.6,259.6,0,0,0,50,23.7q2.58.85,14,5.14t15.85,5.85c2.94,1.05,7.47,2.43,13.55,4.15A125,125,0,0,0,290.21,401a111.32,111.32,0,0,0,15,1q26.26,0,53.11-14.56,28.83-16,34.82-30.27a113.48,113.48,0,0,0,6-19.56Q402,325.19,402,317.49A16,16,0,0,0,401.13,311.47Z"/><text class="cls-1" transform="translate(199 155.89)">175</text></svg>