<svg xmlns="http://www.w3.org/2000/svg" width="52.728" height="52.732" viewBox="0 0 52.728 52.732">
  <path id="cashier" d="M22.039,1.478H43.46a4.641,4.641,0,0,1,4.634,4.634v31h1.339a1.544,1.544,0,0,1,1.544,1.544V49.168a1.545,1.545,0,0,1-1.544,1.545H-.206a1.545,1.545,0,0,1-1.545-1.545V38.655A1.545,1.545,0,0,1-.206,37.111H1.133v-31A4.641,4.641,0,0,1,5.767,1.478H7.621l0-1.957A1.547,1.547,0,0,1,9.691-1.927L12-1.088l2.307-.839a1.531,1.531,0,0,1,1.05,0l2.307.839,2.193-.8A1.542,1.542,0,0,1,22.039-.479ZM7.415,22.693a1.545,1.545,0,0,1,0-3.09h.206V4.567H5.767A1.55,1.55,0,0,0,4.223,6.112v31H45v-31A1.551,1.551,0,0,0,43.46,4.567H22.039V19.6h.206a1.545,1.545,0,0,1,0,3.09H7.415Zm32.543,9.269A1.545,1.545,0,1,0,41.5,33.506,1.545,1.545,0,0,0,39.958,31.961Zm-6.179,0a1.545,1.545,0,1,0,1.545,1.544A1.545,1.545,0,0,0,33.779,31.961Zm-6.179,0a1.545,1.545,0,1,0,1.545,1.544A1.545,1.545,0,0,0,27.6,31.961Zm12.358-6.179A1.545,1.545,0,1,0,41.5,27.327,1.544,1.544,0,0,0,39.958,25.782Zm-6.179,0a1.545,1.545,0,1,0,1.545,1.545A1.544,1.544,0,0,0,33.779,25.782Zm-6.179,0a1.545,1.545,0,1,0,1.545,1.545A1.545,1.545,0,0,0,27.6,25.782ZM39.958,19.6A1.545,1.545,0,1,0,41.5,21.148,1.545,1.545,0,0,0,39.958,19.6Zm-6.179,0a1.545,1.545,0,1,0,1.545,1.545A1.545,1.545,0,0,0,33.779,19.6Zm-6.179,0a1.545,1.545,0,1,0,1.545,1.545A1.545,1.545,0,0,0,27.6,19.6ZM26.983,7.657A1.545,1.545,0,0,0,25.437,9.2v5.767a1.545,1.545,0,0,0,1.545,1.545H40.988a1.545,1.545,0,0,0,1.545-1.545V9.2a1.544,1.544,0,0,0-1.545-1.544Zm12.461,3.089H28.527v2.677H39.443ZM10.71,19.6H18.95V1.722L18.187,2a1.534,1.534,0,0,1-1.05,0L14.83,1.161,12.523,2a1.534,1.534,0,0,1-1.05,0l-.763-.277ZM22.849,45.457h3.53a1.545,1.545,0,1,0,0-3.089h-3.53a1.545,1.545,0,0,0,0,3.089ZM1.339,40.2v7.423h46.55V40.2Zm0,0" transform="translate(1.751 2.02)" fill="#f1892a" fill-rule="evenodd"/>
</svg>
