<svg id="ammeter" xmlns="http://www.w3.org/2000/svg" width="42.836" height="42.836" viewBox="0 0 42.836 42.836">
  <g id="Groupe_2976" data-name="Groupe 2976">
    <g id="Groupe_2975" data-name="Groupe 2975">
      <path id="Tracé_1714" data-name="Tracé 1714" d="M35.306,0H7.53A7.538,7.538,0,0,0,0,7.53V42a.837.837,0,0,0,.837.837H42A.837.837,0,0,0,42.836,42V7.53A7.538,7.538,0,0,0,35.306,0Zm5.856,41.163H1.673V7.53A5.863,5.863,0,0,1,7.53,1.673H35.306A5.863,5.863,0,0,1,41.163,7.53Z" fill="#f07f09"/>
    </g>
  </g>
  <g id="Groupe_2978" data-name="Groupe 2978" transform="translate(18.533 31.647)">
    <g id="Groupe_2977" data-name="Groupe 2977">
      <path id="Tracé_1715" data-name="Tracé 1715" d="M227.087,385.025l-1.938-6.315c-.1-.337-.536-.442-.843-.442-.283,0-.734.084-.833.4l-1.94,6.314a.7.7,0,0,0-.02.107.481.481,0,0,0,.3.413c.26.145.991.342,1.124-.094l.374-1.336h2.151l.381,1.335c.116.407.737.253.994.1a.455.455,0,0,0,.271-.382A.609.609,0,0,0,227.087,385.025Zm-3.491-1.978.863-3.082.873,3.082Z" transform="translate(-221.513 -378.268)" fill="#f07f09"/>
    </g>
  </g>
  <g id="Groupe_2980" data-name="Groupe 2980" transform="translate(6.693 31.96)">
    <g id="Groupe_2979" data-name="Groupe 2979">
      <path id="Tracé_1716" data-name="Tracé 1716" d="M83.765,382a3.765,3.765,0,1,0,3.765,3.765A3.769,3.769,0,0,0,83.765,382Zm0,5.857a2.092,2.092,0,1,1,2.092-2.092A2.094,2.094,0,0,1,83.765,387.857Z" transform="translate(-80 -382)" fill="#f07f09"/>
    </g>
  </g>
  <g id="Groupe_2982" data-name="Groupe 2982" transform="translate(28.613 31.96)">
    <g id="Groupe_2981" data-name="Groupe 2981">
      <path id="Tracé_1717" data-name="Tracé 1717" d="M345.765,382a3.765,3.765,0,1,0,3.765,3.765A3.769,3.769,0,0,0,345.765,382Zm0,5.857a2.092,2.092,0,1,1,2.092-2.092A2.094,2.094,0,0,1,345.765,387.857Z" transform="translate(-342 -382)" fill="#f07f09"/>
    </g>
  </g>
  <g id="Groupe_2984" data-name="Groupe 2984" transform="translate(3.347 27.274)">
    <g id="Groupe_2983" data-name="Groupe 2983">
      <path id="Tracé_1718" data-name="Tracé 1718" d="M54.725,326H40.837a.837.837,0,0,0,0,1.673H54.725a.837.837,0,1,0,0-1.673Z" transform="translate(-40 -326)" fill="#f07f09"/>
    </g>
  </g>
  <g id="Groupe_2986" data-name="Groupe 2986" transform="translate(23.928 27.274)">
    <g id="Groupe_2985" data-name="Groupe 2985">
      <path id="Tracé_1719" data-name="Tracé 1719" d="M300.725,326H286.837a.837.837,0,0,0,0,1.673h13.888a.837.837,0,0,0,0-1.673Z" transform="translate(-286 -326)" fill="#f07f09"/>
    </g>
  </g>
  <g id="Groupe_2988" data-name="Groupe 2988" transform="translate(20.581 27.274)">
    <g id="Groupe_2987" data-name="Groupe 2987">
      <path id="Tracé_1720" data-name="Tracé 1720" d="M246.837,326a.837.837,0,1,0,.837.837A.838.838,0,0,0,246.837,326Z" transform="translate(-246 -326)" fill="#f07f09"/>
    </g>
  </g>
  <g id="Groupe_2990" data-name="Groupe 2990" transform="translate(3.347 3.347)">
    <g id="Groupe_2989" data-name="Groupe 2989">
      <path id="Tracé_1721" data-name="Tracé 1721" d="M70.85,45.293A18.071,18.071,0,0,0,40,58.071v3.347a.837.837,0,0,0,.837.837h34.47a.837.837,0,0,0,.837-.837V58.071A17.953,17.953,0,0,0,70.85,45.293ZM55.7,60.581a2.51,2.51,0,0,1,4.733,0Zm18.765,0H62.17a4.192,4.192,0,0,0-1.734-2.611l2.921-6.762a.837.837,0,0,0-1.536-.664L58.9,57.317a4.184,4.184,0,0,0-4.923,3.265h-12.3v-2.51a16.4,16.4,0,0,1,32.8,0Z" transform="translate(-40 -40)" fill="#f07f09"/>
    </g>
  </g>
  <g id="Groupe_2992" data-name="Groupe 2992" transform="translate(31.458 14.265)">
    <g id="Groupe_2991" data-name="Groupe 2991">
      <circle id="Ellipse_120" data-name="Ellipse 120" cx="0.837" cy="0.837" r="0.837" fill="#f07f09"/>
    </g>
  </g>
  <g id="Groupe_2994" data-name="Groupe 2994" transform="translate(8.032 20.581)">
    <g id="Groupe_2993" data-name="Groupe 2993">
      <circle id="Ellipse_121" data-name="Ellipse 121" cx="0.837" cy="0.837" r="0.837" fill="#f07f09"/>
    </g>
  </g>
  <g id="Groupe_2996" data-name="Groupe 2996" transform="translate(8.45 17.318)">
    <g id="Groupe_2995" data-name="Groupe 2995">
      <circle id="Ellipse_122" data-name="Ellipse 122" cx="0.837" cy="0.837" r="0.837" fill="#f07f09"/>
    </g>
  </g>
  <g id="Groupe_2998" data-name="Groupe 2998" transform="translate(9.705 14.223)">
    <g id="Groupe_2997" data-name="Groupe 2997">
      <circle id="Ellipse_123" data-name="Ellipse 123" cx="0.837" cy="0.837" r="0.837" fill="#f07f09"/>
    </g>
  </g>
  <g id="Groupe_3000" data-name="Groupe 3000" transform="translate(11.713 11.629)">
    <g id="Groupe_2999" data-name="Groupe 2999">
      <circle id="Ellipse_124" data-name="Ellipse 124" cx="0.837" cy="0.837" r="0.837" fill="#f07f09"/>
    </g>
  </g>
  <g id="Groupe_3002" data-name="Groupe 3002" transform="translate(14.307 9.621)">
    <g id="Groupe_3001" data-name="Groupe 3001">
      <circle id="Ellipse_125" data-name="Ellipse 125" cx="0.837" cy="0.837" r="0.837" fill="#f07f09"/>
    </g>
  </g>
  <g id="Groupe_3004" data-name="Groupe 3004" transform="translate(17.318 8.366)">
    <g id="Groupe_3003" data-name="Groupe 3003">
      <circle id="Ellipse_126" data-name="Ellipse 126" cx="0.837" cy="0.837" r="0.837" fill="#f07f09"/>
    </g>
  </g>
  <g id="Groupe_3006" data-name="Groupe 3006" transform="translate(20.581 7.948)">
    <g id="Groupe_3005" data-name="Groupe 3005">
      <circle id="Ellipse_127" data-name="Ellipse 127" cx="0.837" cy="0.837" r="0.837" fill="#f07f09"/>
    </g>
  </g>
  <g id="Groupe_3008" data-name="Groupe 3008" transform="translate(23.836 8.382)">
    <g id="Groupe_3007" data-name="Groupe 3007">
      <circle id="Ellipse_128" data-name="Ellipse 128" cx="0.837" cy="0.837" r="0.837" fill="#f07f09"/>
    </g>
  </g>
  <g id="Groupe_3010" data-name="Groupe 3010" transform="translate(26.87 9.642)">
    <g id="Groupe_3009" data-name="Groupe 3009">
      <circle id="Ellipse_129" data-name="Ellipse 129" cx="0.837" cy="0.837" r="0.837" fill="#f07f09"/>
    </g>
  </g>
  <g id="Groupe_3012" data-name="Groupe 3012" transform="translate(29.464 11.654)">
    <g id="Groupe_3011" data-name="Groupe 3011">
      <circle id="Ellipse_130" data-name="Ellipse 130" cx="0.837" cy="0.837" r="0.837" fill="#f07f09"/>
    </g>
  </g>
  <g id="Groupe_3014" data-name="Groupe 3014" transform="translate(32.708 17.302)">
    <g id="Groupe_3013" data-name="Groupe 3013">
      <circle id="Ellipse_131" data-name="Ellipse 131" cx="0.837" cy="0.837" r="0.837" fill="#f07f09"/>
    </g>
  </g>
  <g id="Groupe_3016" data-name="Groupe 3016" transform="translate(33.131 20.559)">
    <g id="Groupe_3015" data-name="Groupe 3015">
      <circle id="Ellipse_132" data-name="Ellipse 132" cx="0.837" cy="0.837" r="0.837" fill="#f07f09"/>
    </g>
  </g>
</svg>
