<svg xmlns="http://www.w3.org/2000/svg" width="72.85" height="72.85" viewBox="0 0 72.85 72.85">
  <g id="Groupe_3056" data-name="Groupe 3056" transform="translate(-124 -495.533)">
    <g id="Groupe_3057" data-name="Groupe 3057" transform="translate(124 495.533)">
      <g id="piggy-bank" transform="translate(0 0)">
        <g id="Groupe_3053" data-name="Groupe 3053" transform="translate(53.616 38.318)">
          <g id="Groupe_3052" data-name="Groupe 3052">
            <path id="Tracé_1746" data-name="Tracé 1746" d="M387.746,270.613a1.177,1.177,0,0,0-1.177,1.177,1.494,1.494,0,0,1-2.988,0,1.177,1.177,0,1,0-2.353,0,3.847,3.847,0,1,0,7.694,0A1.176,1.176,0,0,0,387.746,270.613Z" transform="translate(-381.228 -270.613)" fill="#f1892a"/>
          </g>
        </g>
        <g id="Groupe_3055" data-name="Groupe 3055">
          <g id="Groupe_3054" data-name="Groupe 3054">
            <path id="Tracé_1747" data-name="Tracé 1747" d="M70.067,43.838l-2.984-.975a1.262,1.262,0,0,1-.806-.833,19.787,19.787,0,0,0-2.821-5.693,20.789,20.789,0,0,0-1.884-2.268,27.358,27.358,0,0,0,.649-6.128c-.044-2.756-.584-4.373-1.65-4.943-.574-.307-2.321-1.24-11.779,3.177a3.427,3.427,0,0,0-.627.381c-.638-.175-1.289-.337-1.945-.482-.079-.018-.16-.033-.24-.05a14.983,14.983,0,0,0,1.3-5.479,1.06,1.06,0,1,0-2.118-.1,12.69,12.69,0,0,1-3.6,8.343A12.247,12.247,0,0,1,37.089,31.7a30.137,30.137,0,0,0-8.534,0,12.246,12.246,0,0,1-4.466-2.911,12.784,12.784,0,0,1,0-17.822,12.176,12.176,0,0,1,17.466,0,12.591,12.591,0,0,1,2.3,3.244,1.05,1.05,0,0,0,1.424.48,1.092,1.092,0,0,0,.47-1.453,14.744,14.744,0,0,0-2.7-3.8,14.267,14.267,0,0,0-20.465,0,14.979,14.979,0,0,0,0,20.882A14.515,14.515,0,0,0,25.144,32.4h0q-.989.262-1.96.592a1.087,1.087,0,0,0-.669,1.369,1.056,1.056,0,0,0,1.342.683,27.913,27.913,0,0,1,17.932,0,1.04,1.04,0,0,0,.336.056,1.063,1.063,0,0,0,1.005-.739,1.087,1.087,0,0,0-.669-1.369q-.97-.331-1.96-.592h0a14.51,14.51,0,0,0,2.553-2.076A14.761,14.761,0,0,0,44.9,28.007c.292.058.582.119.868.182q.571.127,1.135.27c-.012.047-.024.094-.034.142a13.156,13.156,0,0,0,.1,6.581,7.83,7.83,0,0,0,2.812,4.033A8.8,8.8,0,0,0,55,40.9a6.883,6.883,0,0,0,3.382-.8,6.582,6.582,0,0,0,2.492-3.612q.458.546.868,1.118a17.607,17.607,0,0,1,2.511,5.067,3.407,3.407,0,0,0,2.182,2.244l2.984.975a1.912,1.912,0,0,1,1.309,1.83v5.049a1.912,1.912,0,0,1-1.309,1.83L64.613,56.18A3.29,3.29,0,0,0,62.78,57.7a21.3,21.3,0,0,1-8.827,8.193,1.692,1.692,0,0,0-.872,1.195l-1.54,8.32a.479.479,0,0,1-.468.4H46.067a.479.479,0,0,1-.468-.4l-.853-4.6a1.669,1.669,0,0,0-1.894-1.367,43.45,43.45,0,0,1-6.6.5,41.434,41.434,0,0,1-4.859-.28,1.684,1.684,0,0,0-1.837,1.375l-.81,4.369a.479.479,0,0,1-.468.4H23.266a.48.48,0,0,1-.469-.4l-1.483-7.858a1.7,1.7,0,0,0-.855-1.181c-6.765-3.685-10.34-9.841-10.34-17.8a21.133,21.133,0,0,1,2.564-10.573,18.68,18.68,0,0,1,6.891-6.865,1.094,1.094,0,0,0,.387-1.478,1.049,1.049,0,0,0-1.449-.395A20.6,20.6,0,0,0,8.272,44.631h0c-.1-.009-.2-.018-.306-.029a5.483,5.483,0,0,0-.388-2.158,4.369,4.369,0,0,0-3.219-2.869A2.906,2.906,0,0,0,1.6,40.828a2.9,2.9,0,0,0-.53,3.108c.534,1.123,1.907,1.917,4.184,2.416q-.094.144-.207.288A5.167,5.167,0,0,1,1.085,48.78,1.125,1.125,0,0,0,0,49.91v.005a1.123,1.123,0,0,0,1.064,1.13q.114.005.238.006c1.3,0,3.394-.49,5.4-3.061a6.192,6.192,0,0,0,.774-1.276q.3.035.576.06h0C8.019,47.36,8,47.955,8,48.56A22.642,22.642,0,0,0,11.127,60.5a21.609,21.609,0,0,0,8.147,7.67l1.441,7.639a2.613,2.613,0,0,0,2.551,2.157h5.007a2.613,2.613,0,0,0,2.551-2.157l.733-3.95a43.8,43.8,0,0,0,4.69.248,45.663,45.663,0,0,0,6.5-.462l.772,4.165a2.613,2.613,0,0,0,2.551,2.157h5.007a2.613,2.613,0,0,0,2.551-2.157l1.5-8.1a23.306,23.306,0,0,0,9.491-8.925,1.164,1.164,0,0,1,.645-.542l4.808-1.571a4.066,4.066,0,0,0,2.783-3.891V47.729A4.065,4.065,0,0,0,70.067,43.838ZM59.942,30.981c-.408,3.561-1.5,6.607-2.6,7.242a6.378,6.378,0,0,1-6.3-.755c-2.17-1.619-2.892-4.532-2.088-8.422h0a1.3,1.3,0,0,1,.728-.9c5.308-2.479,8.368-3.29,9.5-3.29a1.088,1.088,0,0,1,.384.052C59.906,25.276,60.354,27.387,59.942,30.981ZM2.977,42.992c-.11-.231.149-.637.313-.858a.842.842,0,0,1,.681-.422.78.78,0,0,1,.107.008A2.33,2.33,0,0,1,5.61,43.251a3.341,3.341,0,0,1,.222,1.02C4.364,43.96,3.224,43.513,2.977,42.992Z" transform="translate(0 -5.115)" fill="#f1892a"/>
          </g>
        </g>
      </g>
      <text id="FCFA" transform="translate(22.542 18.467)" fill="#f1892a" font-size="9" font-family="Roboto-Bold, Roboto" font-weight="700" letter-spacing="-0.007em"><tspan x="0" y="0">FCFA</tspan></text>
    </g>
  </g>
</svg>
